<svg width="171" height="242" viewBox="0 0 171 242" fill="none" xmlns="http://www.w3.org/2000/svg">
<path d="M50.078 156.641H12.3719C7.50663 156.641 3.90833 154.462 1.57705 150.104C-0.75424 145.745 -0.500839 141.539 2.33725 137.484L93.2575 6.72944C95.2847 3.89135 97.92 1.91483 101.164 0.799865C104.407 -0.315098 107.752 -0.264418 111.198 0.951905C114.644 2.16823 117.178 4.2968 118.8 7.3376C120.422 10.3784 121.03 13.6219 120.625 17.0682L110.894 95.8251H158.027C163.297 95.8251 166.997 98.1564 169.126 102.819C171.254 107.482 170.595 111.84 167.149 115.894L67.1065 235.702C64.8766 238.338 62.1398 240.061 58.8963 240.872C55.6528 241.683 52.5106 241.379 49.4698 239.959C46.429 238.54 44.047 236.361 42.3239 233.422C40.6008 230.482 39.9419 227.289 40.3474 223.843L50.078 156.641Z" fill="url(#paint0_linear_401_38)"/>
<defs>
<linearGradient id="paint0_linear_401_38" x1="85.1724" y1="0" x2="85.1724" y2="241.314" gradientUnits="userSpaceOnUse">
<stop stop-color="#9351E2"/>
<stop offset="1" stop-color="#3262D8"/>
</linearGradient>
</defs>
</svg>
